# xmcd
#
# Track frame offsets:
#	150
#	8480
#	24573
#	42395
#	58160
#	78328
#	103578
#	126328
#	143455
#	163008
#	187388
#	206077
#	215132
#	233767
#	253665
#	267075
#	284109
#	301280
#	319036
#
# Disc length: 4582 seconds
#
# Revision: 1
# Processed by: cddbd v1.4PL0 Copyright (c) Steve Scherf et al.
# Submitted via: EasyCDDAExtractor 5.0.7
#
DISCID=1b11e413
DTITLE=Alicia Keys - Songs In A Minor
DYEAR=2001
DGENRE=Blues
TTITLE0=Piano and I
TTITLE1=Girlfriend
TTITLE2=How Come You Don't Call Me
TTITLE3=Fallin'
TTITLE4=Troubles
TTITLE5=Rock Wit U
TTITLE6=A Woman's Worth
TTITLE7=Jane Doe
TTITLE8=Goodbye
TTITLE9=The Life
TTITLE10=Mr. Man (duet with Jimmy Cozier)
TTITLE11=Never Felt This Way (Interlude)
TTITLE12=Butterflyz
TTITLE13=Why Do I Feel So Bad
TTITLE14=Caged Bird
TTITLE15=Don't Let Me Be The Last To Know (Britney Spears), Bonus Track
TTITLE16=Never Had A Dreams Come True (S Club 7), Bonus Track
TTITLE17=All For You (Janet Jackson), Bonus Track
TTITLE18=I'm Like A Bird (Nelly Furtado), Bonus Track
EXTD=
EXTT0=
EXTT1=
EXTT2=
EXTT3=
EXTT4=
EXTT5=
EXTT6=
EXTT7=
EXTT8=
EXTT9=
EXTT10=
EXTT11=
EXTT12=
EXTT13=
EXTT14=
EXTT15=
EXTT16=
EXTT17=
EXTT18=
PLAYORDER=
